<?xml version="1.0" encoding="utf-8"?>
<!-- Generator: Adobe Illustrator 19.0.0, SVG Export Plug-In . SVG Version: 6.00 Build 0)  -->
<svg version="1.1" id="Layer_1" xmlns="http://www.w3.org/2000/svg" xmlns:xlink="http://www.w3.org/1999/xlink" x="0px" y="0px"
	 viewBox="-521 347.3 147.6 147.6" style="enable-background:new -521 347.3 147.6 147.6;" xml:space="preserve">
<style type="text/css">
	.st0{fill:#2D2647;}
	.st1{fill:#FFFFFF;}
</style>
<rect x="-521" y="347.3" class="st0" width="147.6" height="147.6"/>
<g id="XMLID_1_">
	<g id="XMLID_13_">
		<g id="XMLID_211_">
			<path id="XMLID_217_" class="st1" d="M-454,399.5c-1.3,0-2.3,1-2.3,2.3c0,1.3,1,2.3,2.3,2.3c1.2,0,2.3-1,2.3-2.3
				C-451.8,400.6-452.8,399.5-454,399.5z"/>
			<path id="XMLID_216_" class="st1" d="M-440.5,442.4c1.3,0,2.3-1,2.3-2.3c0-1.3-1-2.3-2.3-2.3c-1.2,0-2.3,1-2.3,2.3
				C-442.7,441.4-441.7,442.4-440.5,442.4z"/>
			<path id="XMLID_212_" class="st1" d="M-430.1,380l-34.1-0.1l-24.1,24.1l-0.1,34.1l24.1,24.2l34.1,0.1l24.2-24.1l0.1-34.1
				L-430.1,380z M-460.8,433.2h-4.1c-3.5,0-5.6-2.5-6.4-6.1c-1.2-4.8-1.1-7.7,0-12.3c1-4,4-6.1,7.5-6.1h4.5h12.1v-1.5h-12.1v-4.6
				c0-3.5,0.9-5.4,6-6.3c1.7-0.3,3.7-0.5,5.8-0.5s4.2,0.1,6.3,0.5c3.3,0.5,6,3,6,6.3v11.5c0,3.4-2.7,6.1-6,6.1h-12
				c-4.1,0-7.5,3.5-7.5,7.5L-460.8,433.2L-460.8,433.2z M-423.1,427.1c-1.2,3.7-2.5,6.1-6,6.1h-6h-12v1.5h12v4.6c0,3.5-3,5.2-6,6.1
				c-4.6,1.3-8.2,1.1-12,0c-3.2-0.9-6-2.9-6-6.1v-11.5c0-3.3,2.7-6.1,6-6.1h12c4,0,7.5-3.5,7.5-7.6v-5.4h4.5c3.5,0,5.2,2.6,6,6.1
				C-421.9,419.7-421.9,423.3-423.1,427.1z"/>
		</g>
		<path id="XMLID_208_" class="st1" d="M-447.2,360.2l4.4,7.7h-8.9L-447.2,360.2 M-447.2,349.1l-14.1,24.4h28.2L-447.2,349.1
			L-447.2,349.1z"/>
		<path id="XMLID_202_" class="st1" d="M-394,416.6l7.7,4.4l-7.7,4.4V416.6 M-399.6,407v28.2l24.4-14.1L-399.6,407L-399.6,407z"/>
		<path id="XMLID_196_" class="st1" d="M-442.8,474.3l-4.4,7.7l-4.4-7.7H-442.8 M-433.1,468.7h-28.2l14.1,24.4L-433.1,468.7
			L-433.1,468.7z"/>
		<path id="XMLID_190_" class="st1" d="M-500.4,416.6v8.9l-7.7-4.4L-500.4,416.6 M-494.8,407l-24.4,14.1l24.4,14.1V407L-494.8,407z"
			/>
		<path id="XMLID_184_" class="st1" d="M-469.1,356.1l-1.2,8.8l-7-5.4L-469.1,356.1 M-462.3,347.3l-26.1,10.7l22.3,17.2
			L-462.3,347.3L-462.3,347.3z"/>
		<path id="XMLID_181_" class="st1" d="M-425,356.2l8.2,3.4l-7.1,5.4L-425,356.2 M-431.7,347.3l3.6,28l22.4-17.1L-431.7,347.3
			L-431.7,347.3z"/>
		<path id="XMLID_178_" class="st1" d="M-385.6,390.9l3.4,8.2l-8.8-1.2L-385.6,390.9 M-384.1,379.9l-17.2,22.3l27.9,3.8
			L-384.1,379.9L-384.1,379.9z"/>
		<path id="XMLID_175_" class="st1" d="M-382.3,443.3l-3.4,8.2l-5.4-7.1L-382.3,443.3 M-373.5,436.6l-28,3.6l17.1,22.4L-373.5,436.6
			L-373.5,436.6z"/>
		<path id="XMLID_172_" class="st1" d="M-424.1,477.3l7,5.4l-8.2,3.4L-424.1,477.3 M-428.3,466.9l-3.8,27.9l26.1-10.7L-428.3,466.9
			L-428.3,466.9z"/>
		<path id="XMLID_169_" class="st1" d="M-470.6,477.2l1.1,8.8l-8.2-3.4L-470.6,477.2 M-466.3,466.9l-22.4,17.1l26,10.9L-466.3,466.9
			L-466.3,466.9z"/>
		<path id="XMLID_166_" class="st1" d="M-512.2,443l8.8,1.2l-5.4,7L-512.2,443 M-521,436.2l10.7,26.1l17.2-22.3L-521,436.2
			L-521,436.2z"/>
		<path id="XMLID_163_" class="st1" d="M-508.7,390.7l5.4,7.1l-8.8,1.1L-508.7,390.7 M-510.1,379.6l-10.9,26l28-3.6L-510.1,379.6
			L-510.1,379.6z"/>
	</g>
	<g id="XMLID_3_">
		<g id="XMLID_10_">
			<path id="XMLID_205_" class="st1" d="M-481.9,384.4l-10.6-10.6v-8.4c0-1.8-1.4-3.4-3.2-3.7l-13.5-1.9l1.9,13.5
				c0.3,1.8,1.8,3.2,3.7,3.2h8.4l10.6,10.6c0.4,0.4,0.9,0.6,1.4,0.6s1-0.2,1.4-0.6C-481.1,386.4-481.1,385.2-481.9,384.4z
				 M-496.4,372.3c0,0.1,0,0.2,0,0.2l-0.2,0.2c0,0-0.5-0.4-1.3-1.1c-0.8-0.7-1.7-1.6-2.7-2.6c-0.5-0.6-1.1-1.1-1.6-1.6
				c-0.1-0.1-0.1-0.1-0.2-0.2c-0.3-0.3-0.6-0.6-0.9-0.9c-0.7-0.8-1.1-1.3-1.1-1.3l0.2-0.2c0,0,0.1,0,0.2,0s0.3,0,0.5,0
				c0.4,0,1,0,1.6,0.2c0.6,0.1,1.2,0.3,1.8,0.6c0.3,0.2,0.6,0.3,0.9,0.5c0.3,0.2,0.5,0.4,0.8,0.7c0.2,0.3,0.5,0.5,0.7,0.8
				c0.2,0.3,0.4,0.6,0.5,0.9c0.1,0.2,0.2,0.5,0.3,0.7c0.1,0.4,0.3,0.7,0.3,1.1c0.1,0.6,0.2,1.2,0.1,1.6
				C-496.4,371.9-496.4,372.1-496.4,372.3z"/>
			<path id="XMLID_71_" class="st1" d="M-411.2,387.2c0.4,0.4,0.9,0.6,1.4,0.6s1-0.2,1.4-0.6l10.6-10.6h8.4c1.8,0,3.4-1.4,3.7-3.2
				l1.9-13.5l-13.5,1.9c-1.8,0.3-3.2,1.8-3.2,3.7v8.4l-10.6,10.6C-412,385.2-412,386.4-411.2,387.2z M-396.7,371.7
				c0-0.4,0-1,0.1-1.6c0.1-0.4,0.2-0.7,0.3-1.1c0.1-0.2,0.2-0.5,0.3-0.7c0.2-0.3,0.3-0.6,0.5-0.9c0.2-0.3,0.4-0.5,0.7-0.8
				c0.2-0.2,0.5-0.5,0.8-0.7c0.3-0.2,0.6-0.4,0.9-0.5c0.6-0.3,1.2-0.5,1.8-0.6c0.6-0.1,1.2-0.2,1.6-0.2c0.2,0,0.4,0,0.5,0
				s0.2,0,0.2,0l0.2,0.2c0,0-0.5,0.5-1.1,1.3c-0.3,0.3-0.6,0.6-0.9,0.9c-0.1,0.1-0.1,0.1-0.2,0.2c-0.5,0.5-1,1.1-1.6,1.6
				c-1,0.9-1.9,1.9-2.7,2.6c-0.8,0.7-1.3,1.1-1.3,1.1l-0.2-0.2c0,0,0-0.1,0-0.2C-396.7,372.1-396.7,371.9-396.7,371.7z"/>
		</g>
		<g id="XMLID_15_">
			<path id="XMLID_5_" class="st1" d="M-385.4,484.1c-0.5,0-1-0.2-1.4-0.6l-24.3-24.3c-0.8-0.8-0.8-2,0-2.8c0.8-0.8,2-0.8,2.8,0
				l24.3,24.3c0.8,0.8,0.8,2,0,2.8C-384.4,483.9-384.9,484.1-385.4,484.1z"/>
		</g>
		<g id="XMLID_16_">
			<path id="XMLID_6_" class="st1" d="M-507.4,484.1c-0.5,0-1-0.2-1.4-0.6c-0.8-0.8-0.8-2,0-2.8l24.3-24.3c0.8-0.8,2-0.8,2.8,0
				c0.8,0.8,0.8,2,0,2.8l-24.3,24.3C-506.3,483.9-506.8,484.1-507.4,484.1z"/>
		</g>
	</g>
</g>
</svg>
